HIERARCHY
ROOT Hips
{
	OFFSET 0.00000 0.00000 0.00000
	CHANNELS 6 Xposition Yposition Zposition Zrotation Yrotation Xrotation 
	JOINT LHipJoint
	{
		OFFSET 0 0 0
		CHANNELS 3 Zrotation Yrotation Xrotation
		JOINT LeftHip
		{
			OFFSET 1.33213 -1.58186 0.78596
			CHANNELS 3 Zrotation Yrotation Xrotation
			JOINT LeftKnee
			{
				OFFSET 2.29717 -6.31144 0.00000
				CHANNELS 3 Zrotation Yrotation Xrotation
				JOINT LeftAnkle
				{
					OFFSET 2.38430 -6.55082 0.00000
					CHANNELS 3 Zrotation Yrotation Xrotation
					JOINT LeftToe
					{
						OFFSET 0.11863 -0.32594 1.77568
						CHANNELS 3 Zrotation Yrotation Xrotation
						End Site
						{
							OFFSET 0.00000 -0.00000 0.91633
						}
					}
				}
			}
		}
	}
	JOINT RHipJoint
	{
		OFFSET 0 0 0
		CHANNELS 3 Zrotation Yrotation Xrotation
		JOINT RightHip
		{
			OFFSET -1.41575 -1.58186 0.78596
			CHANNELS 3 Zrotation Yrotation Xrotation
			JOINT RightKnee
			{
				OFFSET -2.42012 -6.64922 0.00000
				CHANNELS 3 Zrotation Yrotation Xrotation
				JOINT RightAnkle
				{
					OFFSET -2.47254 -6.79327 0.00000
					CHANNELS 3 Zrotation Yrotation Xrotation
					JOINT RightToe
					{
						OFFSET -0.15219 -0.41813 1.93430
						CHANNELS 3 Zrotation Yrotation Xrotation
						End Site
						{
							OFFSET -0.00000 -0.00000 0.99984
						}
					}
				}
			}
		}
	}
	JOINT lowerback
	{
		OFFSET 0 0 0
		CHANNELS 3 Zrotation Yrotation Xrotation
		JOINT Chest
		{
			OFFSET -0.04717 2.09389 -0.14516
			CHANNELS 3 Zrotation Yrotation Xrotation
			JOINT Chest2
			{
				OFFSET 0.02825 2.09433 -0.11325
				CHANNELS 3 Zrotation Yrotation Xrotation
				JOINT lowerneck
				{
					OFFSET 0 0 0
					CHANNELS 3 Zrotation Yrotation Xrotation
					JOINT Neck
					{
						OFFSET -0.01210 1.39029 0.12448
						CHANNELS 3 Zrotation Yrotation Xrotation
						JOINT Head
						{
							OFFSET 0.09492 1.38365 0.14559
							CHANNELS 3 Zrotation Yrotation Xrotation
							End Site
							{
								OFFSET 0.03402 1.40343 0.03708
							}
						}
					}
				}
				JOINT LeftCollar
				{
					OFFSET 0 0 0
					CHANNELS 3 Zrotation Yrotation Xrotation
					JOINT LeftShoulder
					{
						OFFSET 2.83352 1.10671 -0.20481
CHANNELS 3 Zrotation Xrotation Yrotation
						JOINT LeftElbow
						{
OFFSET 0 -4.771950 -0.000000
CHANNELS 3 Zrotation Xrotation Yrotation
							JOINT LeftWrist
							{
OFFSET 0 -2.984440 0.000000
CHANNELS 3 Zrotation Xrotation Yrotation
								JOINT lhand
								{
									OFFSET 0 0 0
CHANNELS 3 Zrotation Xrotation Yrotation
									JOINT LFingers
									{
OFFSET 0 -0.992280 0.000000
CHANNELS 3 Zrotation Xrotation Yrotation
										End Site
										{
OFFSET 0 -0.800010 0.000000
										}
									}
								}
								JOINT LThumb
								{
OFFSET 0 0.000000 0.000000
CHANNELS 3 Zrotation Xrotation Yrotation
									End Site
									{
OFFSET 0 -0.812220 0.812220
									}
								}
							}
						}
					}
				}
				JOINT RightCollar
				{
					OFFSET 0 0 0
					CHANNELS 3 Zrotation Yrotation Xrotation
					JOINT RightShoulder
					{
						OFFSET -3.23760 1.11106 0.06723
CHANNELS 3 Zrotation Xrotation Yrotation
						JOINT RightElbow
						{
OFFSET 0 -4.620520 0.000000
CHANNELS 3 Zrotation Xrotation Yrotation
							JOINT RightWrist
							{
OFFSET 0 -2.953320 0.000000
CHANNELS 3 Zrotation Xrotation Yrotation
								JOINT rhand
								{
									OFFSET 0 0 0
CHANNELS 3 Zrotation Xrotation Yrotation
									JOINT RFingers
									{
OFFSET 0 -0.990960 0.000000
CHANNELS 3 Zrotation Xrotation Yrotation
										End Site
										{
OFFSET 0 -0.798930 0.000000
										}
									}
								}
								JOINT RThumb
								{
OFFSET 0 0.000000 0.000000
CHANNELS 3 Zrotation Xrotation Yrotation
									End Site
									{
OFFSET 0 -0.811130 0.811130
									}
								}
							}
						}
					}
				}
			}
		}
	}
}
MOTION
Frames: 10
Frame Time: 0.008333333333333333
-5.451106 16.250232 8.712992 -175.870621 79.726597 -167.550608 0.000000 0.000000 0.000000 -13.645716 -13.738971 -28.523515 0.898713 6.039942 16.900878 -0.004699 -7.413827 10.445821 0.115754 -2.183753 -6.014075 0.000000 0.000000 0.000000 24.974212 1.153828 -4.760055 -1.474740 -7.673519 21.726719 0.231436 26.235443 -17.056474 -1.680299 -8.163037 23.211960 -2.581570 -0.296075 -9.750452 -0.387049 -0.031510 2.377439 1.039946 -0.127820 8.003706 -6.338530 -2.050046 -0.805258 9.513686 -2.478062 -2.850498 4.262798 -1.217083 -0.552660 0.000000 0.000000 0.000000 0.651039 1.591144 4.794881 7.767745 -13.175643 0.898496 9.195540 43.675929 -7.434267 0.000000 0.000000 0.000000 -7.125000 0.000000 0.000000 -14.882460 37.129467 -2.962266 0.000000 0.000000 0.000000 0.155812 0.409332 18.224618 -19.841563 -30.450957 -5.450835 -1.159103 24.733868 4.455168 0.000000 0.000000 0.000000 7.125000 0.000000 0.000000 20.655355 33.824732 5.996919
-5.315517 16.240095 8.658375 -176.231863 79.867592 -167.927823 0.000000 0.000000 0.000000 -14.096347 -13.359114 -28.404146 0.957138 6.229225 17.451035 0.040702 -7.215881 11.165664 0.087862 -1.908460 -5.252825 0.000000 0.000000 0.000000 24.867437 1.507083 -3.976565 -1.473020 -7.669157 21.713756 0.095909 25.622929 -17.474421 -1.570698 -7.906912 22.432279 -2.691110 -0.298225 -9.918356 -0.439146 -0.010929 2.340516 1.049837 -0.121861 8.060719 -6.246991 -2.041138 -0.901773 9.475657 -2.467987 -2.761293 4.228394 -1.209649 -0.508979 0.000000 0.000000 0.000000 0.686918 1.666833 5.756043 7.668035 -13.013330 0.875887 9.184420 44.450388 -7.399802 0.000000 0.000000 0.000000 -7.125000 0.000000 0.000000 -14.884180 37.095002 -2.975597 0.000000 0.000000 0.000000 0.150836 0.730395 18.387054 -19.830689 -30.437871 -5.445306 -1.155110 24.524003 4.512303 0.000000 0.000000 0.000000 7.125000 0.000000 0.000000 20.672066 33.877997 5.973758
-5.179446 16.236335 8.604349 -176.627938 79.954355 -168.369346 0.000000 0.000000 0.000000 -14.406788 -13.275392 -28.187833 1.025960 6.440695 18.069412 0.005397 -7.465513 10.750270 0.215058 -2.842838 -7.850928 0.000000 0.000000 0.000000 24.782526 1.873093 -3.246879 -1.497397 -7.729317 21.895108 -0.049318 24.911596 -17.918466 -1.400273 -7.474638 21.134550 -2.792236 -0.292230 -10.045639 -0.494298 0.019084 2.311953 1.053404 -0.110704 8.102833 -6.247893 -2.079978 -1.008685 9.538912 -2.521415 -2.643311 4.248062 -1.232815 -0.446113 0.000000 0.000000 0.000000 0.747019 1.729661 6.497167 7.596513 -12.896675 0.859871 9.166977 45.081710 -7.446685 0.000000 0.000000 0.000000 -7.125000 0.000000 0.000000 -14.908676 37.139795 -2.963903 0.000000 0.000000 0.000000 0.340817 0.843906 18.047358 -19.631984 -30.195798 -5.345299 -1.129895 24.789315 4.516331 0.000000 0.000000 0.000000 7.125000 0.000000 0.000000 20.692688 33.880459 5.979106
-5.043605 16.234335 8.551144 -177.210466 80.015282 -169.015609 0.000000 0.000000 0.000000 -14.731141 -13.221686 -27.933992 1.096379 6.652648 18.690744 -0.039591 -7.789513 10.219112 0.333018 -3.708133 -10.257110 0.000000 0.000000 0.000000 24.677543 2.217486 -2.556984 -1.536129 -7.823640 22.180111 -0.195950 24.145828 -18.353186 -1.212603 -6.974458 19.644000 -2.933585 -0.290196 -10.148238 -0.559378 0.049696 2.293959 1.069208 -0.100904 8.142180 -6.267319 -2.130677 -1.103161 9.636334 -2.589670 -2.537357 4.283940 -1.263571 -0.387275 0.000000 0.000000 0.000000 0.820808 1.763740 7.169578 7.520208 -12.772086 0.842926 9.184262 45.665720 -7.509416 0.000000 0.000000 0.000000 -7.125000 0.000000 0.000000 -14.907899 37.202308 -2.940310 0.000000 0.000000 0.000000 0.539165 0.964021 17.646086 -19.420247 -29.937341 -5.238986 -1.110033 25.084761 4.510871 0.000000 0.000000 0.000000 7.125000 0.000000 0.000000 20.706867 33.874311 5.986991
-4.908692 16.234888 8.500214 -178.353170 80.020934 -170.265212 0.000000 0.000000 0.000000 -15.161866 -13.126768 -27.608076 1.167030 6.856062 19.290357 -0.077988 -8.140803 9.843801 0.352309 -3.812942 -10.551141 0.000000 0.000000 0.000000 24.500669 2.489339 -1.965665 -1.607394 -7.994308 22.697400 -0.342535 23.256607 -18.747296 -0.999175 -6.344189 17.792143 -3.202980 -0.304080 -10.192963 -0.653744 0.077895 2.304834 1.125667 -0.097648 8.179718 -6.302153 -2.196413 -1.154521 9.793487 -2.675004 -2.481574 4.345437 -1.303935 -0.349553 0.000000 0.000000 0.000000 0.925924 1.714837 7.729258 7.416381 -12.602339 0.820133 9.311680 46.168326 -7.584306 0.000000 0.000000 0.000000 -7.125000 0.000000 0.000000 -14.818755 37.283711 -2.891284 0.000000 0.000000 0.000000 0.675184 1.198398 17.281711 -19.253203 -29.731839 -5.155925 -1.116299 25.258378 4.500119 0.000000 0.000000 0.000000 7.125000 0.000000 0.000000 20.699372 33.864543 5.989817
-4.776508 16.236578 8.453111 -179.896062 79.986265 -171.912728 0.000000 0.000000 0.000000 -15.712989 -12.850364 -27.294400 1.231428 7.036207 19.823348 -0.126883 -8.696203 9.574146 0.385773 -3.984980 -11.034958 0.000000 0.000000 0.000000 24.256643 2.702377 -1.555302 -1.713904 -8.238913 23.444493 -0.443228 22.450872 -18.922781 -0.859911 -5.907647 16.518283 -3.569012 -0.322057 -10.209190 -0.788014 0.116895 2.320824 1.195921 -0.092307 8.206189 -6.260095 -2.269691 -1.158587 9.947645 -2.769812 -2.462322 4.391397 -1.350740 -0.332220 0.000000 0.000000 0.000000 1.071325 1.597872 8.420362 7.291106 -12.397197 0.793134 9.485786 46.843436 -7.638808 0.000000 0.000000 0.000000 -7.125000 0.000000 0.000000 -14.686372 37.348401 -2.840136 0.000000 0.000000 0.000000 0.923073 1.405869 16.731567 -19.027496 -29.452021 -5.044745 -1.219618 25.583695 4.439686 0.000000 0.000000 0.000000 7.125000 0.000000 0.000000 20.604677 33.813316 5.986315
-4.646018 16.238974 8.408386 -181.687528 79.926549 -173.807406 0.000000 0.000000 0.000000 -16.338897 -12.461230 -26.988327 1.291942 7.201899 20.314956 -0.182298 -9.378385 9.370118 0.428041 -4.198776 -11.636660 0.000000 0.000000 0.000000 23.970906 2.878881 -1.257339 -1.842304 -8.529442 24.334328 -0.515415 21.696994 -18.962469 -0.766713 -5.591437 15.603444 -3.995069 -0.342577 -10.207716 -0.947071 0.162603 2.339992 1.274743 -0.085672 8.225787 -6.170276 -2.347653 -1.133275 10.099945 -2.870506 -2.465763 4.427705 -1.401548 -0.327551 0.000000 0.000000 0.000000 1.241748 1.438631 9.193101 7.152507 -12.170069 0.763522 9.688892 47.625697 -7.680645 0.000000 0.000000 0.000000 -7.125000 0.000000 0.000000 -14.527131 37.402710 -2.787670 0.000000 0.000000 0.000000 1.240450 1.596627 16.066034 -18.765349 -29.126043 -4.916098 -1.383222 26.003240 4.348392 0.000000 0.000000 0.000000 7.125000 0.000000 0.000000 20.455818 33.736337 5.978881
-4.519053 16.246353 8.365909 -183.125932 79.854315 -175.299192 0.000000 0.000000 0.000000 -16.830021 -12.160574 -26.673747 1.344070 7.339152 20.724528 -0.234857 -9.976404 9.146401 0.401458 -4.066317 -11.263461 0.000000 0.000000 0.000000 23.711238 2.998568 -1.344097 -2.050250 -8.961561 25.681016 -0.509698 21.170510 -18.629041 -0.736106 -5.480441 15.284313 -4.394266 -0.385581 -10.225080 -1.074225 0.172823 2.333576 1.366083 -0.095384 8.230375 -6.104400 -2.397783 -1.098727 10.268590 -2.936622 -2.428732 4.474952 -1.434793 -0.313888 0.000000 0.000000 0.000000 1.372853 1.252834 10.241908 7.039916 -11.984810 0.740047 9.724522 48.632070 -7.679155 0.000000 0.000000 0.000000 -7.125000 0.000000 0.000000 -14.497325 37.403543 -2.781327 0.000000 0.000000 0.000000 1.529509 1.837943 15.386463 -18.474764 -28.759776 -4.775967 -1.566696 26.487563 4.308873 0.000000 0.000000 0.000000 7.125000 0.000000 0.000000 20.303678 33.708519 5.943798
-4.393060 16.255119 8.322125 -184.446329 79.788894 -176.665541 0.000000 0.000000 0.000000 -17.282072 -11.909361 -26.335093 1.393020 7.466633 21.105555 -0.283632 -10.519343 8.925332 0.348252 -3.770696 -10.434654 0.000000 0.000000 0.000000 23.460160 3.111902 -1.537953 -2.289978 -9.435957 27.176450 -0.486316 20.633247 -18.163442 -0.693331 -5.319898 14.824029 -4.774873 -0.440488 -10.250488 -1.176760 0.162847 2.323816 1.469529 -0.114778 8.237285 -6.077421 -2.429245 -1.054374 10.432442 -2.978311 -2.393321 4.528891 -1.455989 -0.304212 0.000000 0.000000 0.000000 1.473619 1.077247 11.191146 6.950481 -11.837624 0.721481 9.708576 49.482994 -7.666909 0.000000 0.000000 0.000000 -7.125000 0.000000 0.000000 -14.507954 37.390489 -2.788280 0.000000 0.000000 0.000000 1.755865 2.069136 14.757763 -18.157998 -28.357851 -4.624607 -1.732559 26.917733 4.319948 0.000000 0.000000 0.000000 7.125000 0.000000 0.000000 20.177014 33.727359 5.892757
-4.268714 16.266239 8.275987 -185.565073 79.735752 -177.818075 0.000000 0.000000 0.000000 -17.667705 -11.743792 -25.954068 1.436517 7.577402 21.437738 -0.325777 -10.966595 8.709324 0.249341 -3.193508 -8.819755 0.000000 0.000000 0.000000 23.223756 3.215114 -1.913571 -2.584316 -9.982305 28.925832 -0.433236 20.072523 -17.471553 -0.627840 -5.067828 14.102773 -5.123152 -0.515993 -10.289746 -1.236414 0.117876 2.308641 1.594121 -0.150964 8.248590 -6.118706 -2.428262 -0.992877 10.587506 -2.977513 -2.361558 4.594443 -1.456235 -0.301754 0.000000 0.000000 0.000000 1.521539 0.920218 11.959092 6.901456 -11.756898 0.711467 9.604749 50.054899 -7.636498 0.000000 0.000000 0.000000 -7.125000 0.000000 0.000000 -14.587513 37.353935 -2.817831 0.000000 0.000000 0.000000 1.871978 2.281458 14.219217 -17.795528 -27.893704 -4.453632 -1.866919 27.250960 4.419412 0.000000 0.000000 0.000000 7.125000 0.000000 0.000000 20.095427 33.827683 5.814058
